
        <svg xmlns="http://www.w3.org/2000/svg" xmlns:xlink="http://www.w3.org/1999/xlink" version="1.1" width="3176.470588235294" height="978.6383865761771" viewBox="0 0 3176.470588235294 978.6383865761771">
			
			<g transform="scale(8.823529411764707) translate(10, 10)">
				<defs id="SvgjsDefs1676"/><g id="SvgjsG1677" featureKey="symbolFeature-0" transform="matrix(0.2145945794436101,0,0,0.2145945794436101,-4.936104280601273,-9.480145973823756)" fill="#000"><g xmlns="http://www.w3.org/2000/svg"><g><g><g><path d="M300.417,201.362c-1.657,0-3-1.343-3-3v-72.906c0-4.198-4.594-7.745-10.03-7.745h-62.785      c-5.423,0-10.004,3.547-10.004,7.745v72.906c0,1.657-1.343,3-3,3s-3-1.343-3-3v-72.906c0-7.579,7.179-13.745,16.004-13.745      h62.785c8.839,0,16.03,6.166,16.03,13.745v72.906C303.417,200.019,302.074,201.362,300.417,201.362z"/></g><g><path d="M282.49,200.737c-1.657,0-3-1.343-3-3v-56.258c0-1.657,1.343-3,3-3s3,1.343,3,3v56.258      C285.49,199.394,284.147,200.737,282.49,200.737z"/></g><g><path d="M229.498,200.737c-1.657,0-3-1.343-3-3v-56.258c0-1.657,1.343-3,3-3s3,1.343,3,3v56.258      C232.498,199.394,231.155,200.737,229.498,200.737z"/></g><g><path d="M282.49,167.439h-42.329c-1.657,0-3-1.343-3-3s1.343-3,3-3h42.329c1.657,0,3,1.343,3,3S284.147,167.439,282.49,167.439z      "/></g><g><path d="M282.49,176.77h-52.992c-1.657,0-3-1.343-3-3s1.343-3,3-3h52.992c1.657,0,3,1.343,3,3S284.147,176.77,282.49,176.77z"/></g><g><path d="M255.995,106.122c-17.076,0-30.968-13.891-30.968-30.966c0-17.082,13.892-30.979,30.968-30.979      c17.089,0,30.991,13.897,30.991,30.979C286.986,92.23,273.084,106.122,255.995,106.122z M255.995,50.176      c-13.767,0-24.968,11.206-24.968,24.979c0,13.766,11.201,24.966,24.968,24.966c13.78,0,24.991-11.2,24.991-24.966      C280.986,61.382,269.775,50.176,255.995,50.176z"/></g><g><path d="M373.546,294.849c-1.037,0-2.045-0.538-2.601-1.501c-0.829-1.435-0.337-3.27,1.098-4.098l63.111-36.439      c2.083-1.208,3.33-3.698,3.33-6.658c0-2.008-0.563-4.053-1.631-5.913l-31.39-54.36c-1.972-3.407-5.352-5.61-8.608-5.61      c-1.13,0-2.173,0.271-3.099,0.805l-63.139,36.454c-1.435,0.828-3.269,0.336-4.098-1.098c-0.829-1.435-0.337-3.27,1.098-4.098      l63.14-36.454c1.85-1.067,3.901-1.608,6.098-1.608c5.44,0,10.729,3.298,13.804,8.606l31.395,54.371      c1.592,2.775,2.431,5.852,2.431,8.906c0,5.124-2.364,9.555-6.325,11.852l-63.116,36.441      C374.57,294.719,374.055,294.848,373.546,294.849z"/></g><g><path d="M365.111,279.03c-1.037,0-2.045-0.538-2.601-1.501c-0.829-1.435-0.337-3.27,1.098-4.098l48.722-28.129      c1.437-0.827,3.271-0.336,4.098,1.098c0.829,1.435,0.337,3.27-1.098,4.098l-48.722,28.128      C366.136,278.9,365.62,279.03,365.111,279.03z"/></g><g><path d="M338.614,233.122c-1.037,0-2.045-0.538-2.601-1.5c-0.829-1.435-0.337-3.27,1.098-4.098l48.695-28.113      c1.437-0.827,3.271-0.336,4.098,1.098c0.829,1.435,0.337,3.27-1.098,4.098l-48.695,28.113      C339.639,232.992,339.123,233.122,338.614,233.122z"/></g><g><path d="M393.947,262.38c-1.037,0-2.046-0.539-2.602-1.501l-21.164-36.67c-0.828-1.435-0.336-3.27,1.099-4.098      c1.438-0.829,3.271-0.336,4.099,1.099l21.164,36.669c0.828,1.436,0.336,3.271-1.099,4.099      C394.972,262.25,394.456,262.38,393.947,262.38z"/></g><g><path d="M385.868,267.032c-1.037,0-2.045-0.538-2.601-1.501l-26.497-45.892c-0.829-1.435-0.337-3.27,1.098-4.098      c1.437-0.827,3.27-0.335,4.098,1.098l26.497,45.892c0.829,1.435,0.337,3.27-1.098,4.098      C386.893,266.902,386.377,267.032,385.868,267.032z"/></g><g><path d="M458.046,222.771c-11.042,0-21.328-5.938-26.846-15.495c-2.72-4.708-4.158-10.058-4.158-15.468      c0-11.041,5.933-21.324,15.483-26.837c4.714-2.72,10.065-4.158,15.479-4.158c11.044,0,21.329,5.934,26.843,15.485      c2.715,4.705,4.15,10.048,4.15,15.452c0,11.051-5.941,21.346-15.506,26.867C468.793,221.333,463.451,222.771,458.046,222.771z       M458.004,166.812c-4.361,0-8.677,1.16-12.479,3.354c-7.7,4.445-12.483,12.737-12.483,21.641c0,4.358,1.16,8.669,3.354,12.468      c4.449,7.708,12.744,12.496,21.649,12.496c4.353,0,8.655-1.158,12.443-3.349c7.716-4.454,12.508-12.758,12.508-21.672      c0-4.353-1.157-8.659-3.348-12.453C475.205,171.595,466.91,166.812,458.004,166.812z"/></g><g><path d="M396.847,442.57c-2.193,0-4.241-0.54-6.087-1.604l-63.142-36.439c-1.435-0.828-1.927-2.663-1.099-4.099      c0.829-1.434,2.664-1.926,4.099-1.099l63.14,36.439c0.922,0.532,1.961,0.802,3.089,0.802c3.259,0,6.643-2.207,8.619-5.622      l31.393-54.352c1.063-1.851,1.627-3.893,1.627-5.899c0-2.961-1.245-5.446-3.33-6.649l-63.113-36.454      c-1.435-0.828-1.926-2.663-1.097-4.098c0.828-1.435,2.665-1.928,4.098-1.098l63.111,36.453      c3.964,2.287,6.331,6.716,6.331,11.846c0,3.054-0.84,6.13-2.428,8.895l-31.397,54.36      C407.582,439.269,402.29,442.57,396.847,442.57z"/></g><g><path d="M387.331,417.837c-0.509,0-1.024-0.13-1.496-0.402l-48.723-28.115c-1.436-0.828-1.928-2.663-1.1-4.098      s2.665-1.926,4.098-1.1l48.723,28.115c1.436,0.828,1.928,2.663,1.1,4.098C389.377,417.298,388.368,417.837,387.331,417.837z"/></g><g><path d="M413.827,371.944c-0.509,0-1.024-0.13-1.496-0.402l-48.722-28.115c-1.436-0.828-1.928-2.663-1.1-4.098      s2.665-1.927,4.098-1.1l48.722,28.115c1.436,0.828,1.928,2.663,1.1,4.098C415.873,371.405,414.864,371.944,413.827,371.944z"/></g><g><path d="M367.444,406.37c-0.509,0-1.024-0.13-1.497-0.402c-1.435-0.828-1.927-2.663-1.099-4.099l21.164-36.67      c0.828-1.434,2.664-1.926,4.099-1.099c1.435,0.828,1.927,2.663,1.099,4.099l-21.164,36.67      C369.49,405.831,368.481,406.37,367.444,406.37z"/></g><g><path d="M359.365,401.69c-0.509,0-1.024-0.13-1.497-0.403c-1.435-0.828-1.927-2.663-1.098-4.098l26.497-45.891      c0.829-1.435,2.663-1.929,4.098-1.098c1.435,0.828,1.927,2.663,1.098,4.098l-26.497,45.891      C361.41,401.152,360.402,401.69,359.365,401.69z"/></g><g><path d="M457.981,456.04c-5.404,0-10.749-1.436-15.455-4.15c-9.552-5.515-15.484-15.801-15.484-26.844      c0-5.411,1.438-10.764,4.158-15.478c5.517-9.559,15.803-15.496,26.846-15.496c5.406,0,10.748,1.438,15.448,4.157      c9.563,5.529,15.503,15.825,15.503,26.868c0,5.401-1.436,10.743-4.15,15.448C479.323,450.104,469.029,456.04,457.981,456.04z       M458.046,400.072c-8.905,0-17.201,4.788-21.648,12.495c-2.195,3.804-3.355,8.118-3.355,12.479      c0,8.906,4.783,17.201,12.483,21.647c3.795,2.189,8.103,3.347,12.456,3.347c8.912,0,17.216-4.787,21.669-12.494      c2.189-3.793,3.347-8.099,3.347-12.448c0-8.908-4.793-17.213-12.508-21.675C466.701,401.23,462.398,400.072,458.046,400.072z"/></g><g><path d="M115.156,442.573c-5.458,0-10.756-3.304-13.828-8.621c-6.268-10.85-11.13-19.281-16.026-27.771      c-4.667-8.094-9.365-16.24-15.339-26.582c-1.604-2.771-2.453-5.858-2.453-8.924c0-5.118,2.364-9.538,6.325-11.824l63.139-36.452      c1.437-0.83,3.271-0.337,4.098,1.098c0.829,1.435,0.337,3.27-1.098,4.098l-63.14,36.453c-2.082,1.202-3.324,3.68-3.324,6.628      c0,2.012,0.569,4.059,1.647,5.92c5.976,10.347,10.675,18.493,15.343,26.588c4.896,8.489,9.757,16.921,16.024,27.768      c1.973,3.416,5.361,5.623,8.632,5.623c1.133,0,2.177-0.271,3.103-0.805l63.112-36.438c1.436-0.831,3.27-0.338,4.098,1.098      c0.828,1.435,0.337,3.27-1.098,4.098l-63.113,36.439C119.434,442.018,117.324,442.573,115.156,442.573z"/></g><g><path d="M98.188,371.958c-1.037,0-2.045-0.538-2.601-1.5c-0.829-1.435-0.337-3.27,1.097-4.099l48.694-28.129      c1.436-0.83,3.27-0.338,4.098,1.097c0.829,1.435,0.337,3.27-1.097,4.099l-48.694,28.129      C99.213,371.828,98.698,371.958,98.188,371.958z"/></g><g><path d="M124.686,417.851c-1.037,0-2.045-0.538-2.601-1.5c-0.829-1.435-0.337-3.27,1.097-4.099l48.694-28.129      c1.435-0.83,3.27-0.338,4.098,1.097s0.337,3.27-1.097,4.099l-48.694,28.129C125.71,417.721,125.195,417.851,124.686,417.851z"/></g><g><path d="M139.211,397.122c-1.037,0-2.045-0.538-2.601-1.501l-21.165-36.645c-0.829-1.435-0.337-3.27,1.097-4.098      c1.436-0.831,3.27-0.338,4.098,1.098l21.165,36.645c0.829,1.435,0.337,3.27-1.097,4.098      C140.236,396.992,139.72,397.122,139.211,397.122z"/></g><g><path d="M152.622,401.706c-1.037,0-2.045-0.539-2.601-1.501l-26.496-45.906c-0.828-1.436-0.336-3.271,1.099-4.099      c1.436-0.827,3.27-0.335,4.098,1.099l26.496,45.906c0.828,1.436,0.336,3.271-1.099,4.099      C153.646,401.576,153.131,401.706,152.622,401.706z"/></g><g><path d="M54.008,456.04c-11.053,0-21.337-5.938-26.841-15.496c-2.719-4.709-4.157-10.06-4.157-15.47      c0-11.035,5.933-21.321,15.484-26.845c4.713-2.717,10.06-4.151,15.466-4.151c11.049,0,21.339,5.936,26.854,15.49      c2.716,4.706,4.151,10.05,4.151,15.454c0,11.052-5.941,21.347-15.504,26.867C64.758,454.604,59.414,456.04,54.008,456.04z       M53.961,400.078c-4.356,0-8.667,1.157-12.466,3.348c-7.699,4.452-12.484,12.749-12.484,21.648c0,4.358,1.16,8.672,3.355,12.473      c4.438,7.707,12.73,12.493,21.643,12.493c4.354,0,8.661-1.157,12.455-3.348c7.713-4.452,12.504-12.755,12.504-21.67      c0-4.354-1.158-8.66-3.348-12.454C71.172,404.864,62.873,400.078,53.961,400.078z"/></g><g><path d="M138.471,294.849c-0.509,0-1.024-0.13-1.497-0.402l-63.14-36.439c-3.962-2.297-6.325-6.719-6.325-11.832      c0-3.065,0.849-6.153,2.454-8.93l14.755-25.57c5.095-8.833,10.093-17.495,16.609-28.782c3.07-5.315,8.37-8.617,13.832-8.617      c2.166,0,4.272,0.553,6.093,1.599l63.119,36.458c1.435,0.829,1.926,2.664,1.097,4.098c-0.829,1.434-2.663,1.926-4.098,1.097      l-63.113-36.454c-0.919-0.528-1.964-0.798-3.098-0.798c-3.275,0-6.665,2.205-8.635,5.618      c-6.516,11.286-11.513,19.948-16.608,28.78l-14.757,25.573c-1.079,1.867-1.649,3.916-1.649,5.928      c0,2.948,1.245,5.43,3.329,6.639l63.134,36.436c1.435,0.828,1.927,2.663,1.099,4.099      C140.517,294.31,139.508,294.849,138.471,294.849z"/></g><g><path d="M173.374,233.137c-0.509,0-1.025-0.13-1.498-0.403l-48.694-28.128c-1.435-0.829-1.926-2.664-1.097-4.098      c0.828-1.436,2.663-1.926,4.098-1.097l48.694,28.128c1.435,0.829,1.926,2.664,1.097,4.098      C175.419,232.599,174.411,233.137,173.374,233.137z"/></g><g><path d="M146.877,279.03c-0.509,0-1.025-0.13-1.498-0.403l-48.694-28.128c-1.435-0.829-1.926-2.664-1.097-4.098      s2.663-1.926,4.098-1.097l48.694,28.128c1.435,0.829,1.926,2.663,1.097,4.099C148.922,278.492,147.914,279.03,146.877,279.03z"/></g><g><path d="M123.373,253.146c-0.509,0-1.024-0.129-1.497-0.402c-1.435-0.829-1.926-2.663-1.098-4.098l21.165-36.658      c0.829-1.434,2.663-1.927,4.098-1.098c1.435,0.829,1.926,2.663,1.098,4.098l-21.165,36.658      C125.418,252.607,124.41,253.146,123.373,253.146z"/></g><g><path d="M126.12,267.046c-0.509,0-1.024-0.13-1.497-0.402c-1.435-0.829-1.927-2.663-1.099-4.099l26.496-45.905      c0.829-1.435,2.664-1.927,4.098-1.099c1.435,0.828,1.927,2.663,1.099,4.098l-26.496,45.906      C128.166,266.507,127.157,267.046,126.12,267.046z"/></g><g><path d="M53.961,222.771c-5.408,0-10.755-1.437-15.464-4.154c-9.558-5.517-15.495-15.811-15.495-26.865      c0-5.402,1.431-10.745,4.139-15.451c5.515-9.556,15.799-15.489,26.843-15.489c5.412,0,10.763,1.438,15.477,4.159      c9.564,5.521,15.505,15.814,15.505,26.862c0,5.402-1.436,10.743-4.152,15.445C75.298,216.833,65.008,222.771,53.961,222.771z       M53.985,166.811c-8.907,0-17.2,4.784-21.645,12.485c-2.183,3.794-3.337,8.102-3.337,12.455c0,8.917,4.787,17.221,12.494,21.669      c3.798,2.192,8.109,3.351,12.465,3.351c8.91,0,17.209-4.788,21.658-12.495c2.19-3.791,3.348-8.094,3.348-12.444      c0-8.911-4.792-17.213-12.504-21.666C62.66,167.971,58.345,166.811,53.985,166.811z"/></g><g><path d="M255.995,356.057c-26.27,0-47.642-21.366-47.642-47.629c0-26.27,21.372-47.641,47.642-47.641      c26.269,0,47.64,21.371,47.64,47.641C303.635,334.69,282.264,356.057,255.995,356.057z M255.995,266.787      c-22.961,0-41.642,18.68-41.642,41.641c0,22.954,18.68,41.629,41.642,41.629c22.96,0,41.64-18.675,41.64-41.629      C297.635,285.467,278.955,266.787,255.995,266.787z"/></g><g><path d="M327.975,453.758H153.953c-1.657,0-3-1.343-3-3s1.343-3,3-3h174.021c1.657,0,3,1.343,3,3      S329.632,453.758,327.975,453.758z"/></g><g><path d="M407.927,453.758h-49.511c-1.657,0-3-1.343-3-3s1.343-3,3-3h49.511c1.657,0,3,1.343,3,3      S409.584,453.758,407.927,453.758z"/></g><g><path d="M346.447,467.824H234.313c-1.657,0-3-1.343-3-3s1.343-3,3-3h112.135c1.657,0,3,1.343,3,3      S348.104,467.824,346.447,467.824z"/></g><g><path d="M141.982,467.824H92.5c-1.657,0-3-1.343-3-3s1.343-3,3-3h49.482c1.657,0,3,1.343,3,3S143.639,467.824,141.982,467.824z"/></g><g><path d="M208.197,467.824h-22.553c-1.657,0-3-1.343-3-3s1.343-3,3-3h22.553c1.657,0,3,1.343,3,3      S209.854,467.824,208.197,467.824z"/></g><g><path d="M263.856,420.883H248.16c-1.484,0-2.745-1.085-2.966-2.552l-4.246-28.117c-4.38-0.801-8.677-1.951-12.824-3.432      l-17.688,22.235c-0.926,1.164-2.563,1.472-3.849,0.73l-13.602-7.861c-1.285-0.743-1.834-2.313-1.292-3.694l10.389-26.463      c-3.329-2.839-6.473-5.985-9.385-9.39l-26.467,10.401c-1.38,0.541-2.952-0.006-3.694-1.29l-7.861-13.588      c-0.744-1.286-0.435-2.923,0.728-3.849l22.238-17.715c-1.468-4.116-2.617-8.412-3.428-12.821l-28.106-4.221      c-1.469-0.221-2.555-1.482-2.555-2.967v-15.725c0-1.484,1.086-2.746,2.555-2.967l19.632-2.948      c1.637-0.243,3.166,0.883,3.412,2.521s-0.883,3.166-2.521,3.412l-17.077,2.564v10.559l27.697,4.159      c1.295,0.194,2.314,1.206,2.518,2.5c0.868,5.503,2.294,10.832,4.24,15.837c0.476,1.224,0.101,2.615-0.927,3.434l-21.917,17.459      l5.274,9.116l26.08-10.249c1.216-0.479,2.602-0.114,3.425,0.9c3.512,4.321,7.418,8.228,11.608,11.607      c1.02,0.822,1.388,2.212,0.909,3.432l-10.239,26.08l9.128,5.275l17.433-21.915c0.817-1.029,2.208-1.407,3.435-0.929      c5.058,1.966,10.385,3.392,15.833,4.24c1.295,0.201,2.309,1.22,2.505,2.516l4.185,27.712h10.532l4.158-27.709      c0.194-1.298,1.211-2.318,2.508-2.52c5.433-0.841,10.759-2.268,15.831-4.239c1.222-0.476,2.614-0.102,3.434,0.927l17.458,21.918      l9.13-5.275l-10.264-26.079c-0.479-1.22-0.112-2.61,0.908-3.434c4.297-3.466,8.199-7.367,11.599-11.596      c0.822-1.021,2.212-1.393,3.436-0.912l26.078,10.249l5.276-9.117l-15.369-12.258c-1.295-1.033-1.508-2.921-0.475-4.217      c1.034-1.294,2.922-1.506,4.217-0.475l17.389,13.869c1.16,0.927,1.47,2.563,0.726,3.849l-7.862,13.588      c-0.742,1.283-2.312,1.831-3.694,1.289l-26.457-10.398c-2.852,3.354-5.998,6.499-9.392,9.387l10.414,26.461      c0.543,1.382-0.006,2.953-1.291,3.696l-13.604,7.861c-1.284,0.744-2.923,0.434-3.848-0.729l-17.713-22.237      c-4.155,1.484-8.452,2.635-12.824,3.433l-4.219,28.113C266.603,419.797,265.342,420.883,263.856,420.883z M359.522,320.171      c-1.459,0-2.738-1.066-2.963-2.554c-0.246-1.638,0.882-3.166,2.521-3.413l3.381-0.509v-10.546l-27.695-4.159      c-1.296-0.194-2.315-1.207-2.519-2.501c-0.848-5.397-2.275-10.729-4.242-15.849c-0.47-1.221-0.094-2.605,0.93-3.422      l21.892-17.459l-5.277-9.128l-26.077,10.262c-1.221,0.481-2.613,0.111-3.437-0.912c-3.432-4.269-7.332-8.169-11.594-11.591      c-1.023-0.822-1.394-2.215-0.913-3.437l10.263-26.092l-9.129-5.268l-17.459,21.895c-0.815,1.021-2.2,1.4-3.419,0.931      c-5.164-1.979-10.495-3.401-15.845-4.229c-1.297-0.201-2.313-1.222-2.508-2.52l-4.158-27.71h-10.532l-4.185,27.712      c-0.196,1.296-1.21,2.315-2.505,2.517c-5.365,0.834-10.697,2.257-15.847,4.23c-1.224,0.468-2.605,0.09-3.42-0.933      l-17.434-21.892l-9.128,5.268l10.238,26.093c0.479,1.222,0.109,2.613-0.914,3.435c-4.186,3.362-8.088,7.265-11.6,11.6      c-0.824,1.017-2.212,1.382-3.43,0.903l-26.078-10.262l-5.275,9.125l4.567,3.637c1.296,1.031,1.51,2.919,0.479,4.215      c-1.033,1.296-2.92,1.512-4.216,0.479l-6.59-5.246c-1.162-0.925-1.472-2.562-0.729-3.848l7.861-13.601      c0.743-1.285,2.314-1.834,3.696-1.29l26.463,10.413c2.913-3.414,6.058-6.561,9.386-9.392l-10.388-26.474      c-0.542-1.382,0.007-2.952,1.293-3.694l13.602-7.849c1.286-0.741,2.921-0.432,3.846,0.729l17.693,22.217      c4.195-1.483,8.49-2.63,12.82-3.423l4.246-28.118c0.222-1.467,1.482-2.552,2.966-2.552h15.696c1.485,0,2.746,1.086,2.967,2.555      l4.219,28.114c4.321,0.79,8.617,1.938,12.82,3.425l17.718-22.219c0.925-1.16,2.559-1.47,3.845-0.728l13.604,7.849      c1.287,0.742,1.837,2.314,1.293,3.697l-10.413,26.472c3.374,2.865,6.521,6.011,9.391,9.389l26.456-10.411      c1.382-0.544,2.952,0.005,3.696,1.29l7.862,13.6c0.743,1.286,0.434,2.922-0.728,3.848l-22.217,17.719      c1.481,4.177,2.632,8.473,3.434,12.82l28.104,4.221c1.469,0.221,2.555,1.482,2.555,2.967v15.711      c0,1.484-1.086,2.745-2.554,2.967l-5.935,0.894C359.821,320.16,359.671,320.171,359.522,320.171z"/></g></g></g></g></g><g id="SvgjsG1678" featureKey="nameFeature-0" transform="matrix(1.0715865879543873,0,0,1.0715865879543873,116.08699453969422,4.798241991428894)" fill="#000"><path d="M21.445 11.777000000000001 l5.8594 0 l0 28.223 l-5.8594 0 l0 -11.602 l-11.934 0 l0 11.602 l-5.8594 0 l0 -28.223 l5.8594 0 l0 11.523 l11.934 0 l0 -11.523 z M50.420234375 40 l-7.3438 -12.422 l-1.6992 0 l0 12.422 l-5.8594 0 l0 -28.223 l10.234 0 c6.3867 0 9.082 3.7695 9.082 8.4375 c0 3.7891 -2.1484 6.25 -5.9766 7.0703 l8.4961 12.715 l-6.9336 0 z M41.376934375 16.641 l0 6.7383 l3.457 0 c3.125 0 4.3945 -1.3281 4.3945 -3.3594 c0 -2.0117 -1.2695 -3.3789 -4.3945 -3.3789 l-3.457 0 z M88.760078125 40 l-7.3438 -12.422 l-1.6992 0 l0 12.422 l-5.8594 0 l0 -28.223 l10.234 0 c6.3867 0 9.082 3.7695 9.082 8.4375 c0 3.7891 -2.1484 6.25 -5.9766 7.0703 l8.4961 12.715 l-6.9336 0 z M79.716778125 16.641 l0 6.7383 l3.457 0 c3.125 0 4.3945 -1.3281 4.3945 -3.3594 c0 -2.0117 -1.2695 -3.3789 -4.3945 -3.3789 l-3.457 0 z M113.39809375 40.39063 c-8.3008 0 -14.434 -5.6641 -14.434 -14.512 c0 -8.8672 6.1328 -14.492 14.434 -14.492 c8.2813 0 14.414 5.625 14.414 14.492 c0 8.8477 -6.1328 14.512 -14.414 14.512 z M113.39809375 35.0195 c4.8633 0 8.5938 -3.418 8.5938 -9.1406 c0 -5.7031 -3.7305 -9.1016 -8.5938 -9.1016 s-8.5938 3.3984 -8.5938 9.1016 c0 5.7227 3.7305 9.1406 8.5938 9.1406 z M146.610984375 40.39063 c-8.3008 0 -14.434 -5.6641 -14.434 -14.512 c0 -8.8672 6.1328 -14.492 14.434 -14.492 c8.2813 0 14.414 5.625 14.414 14.492 c0 8.8477 -6.1328 14.512 -14.414 14.512 z M146.610984375 35.0195 c4.8633 0 8.5938 -3.418 8.5938 -9.1406 c0 -5.7031 -3.7305 -9.1016 -8.5938 -9.1016 s-8.5938 3.3984 -8.5938 9.1016 c0 5.7227 3.7305 9.1406 8.5938 9.1406 z M183.691875 11.777000000000001 l0 5.1563 l-6.6992 0 l0 23.066 l-5.8008 0 l0 -23.066 l-6.7383 0 l0 -5.1563 l19.238 0 z M198.407859375 40.39063 c-6.0547 0 -10.781 -2.9102 -11.641 -8.2031 l6.0547 -1.3867 c0.39063 3.1641 2.7148 4.8047 5.8203 4.8047 c2.3828 0 4.2773 -1.0547 4.2578 -3.4375 c-0.019531 -2.6563 -3.1445 -3.4961 -6.582 -4.5508 c-4.1406 -1.2891 -8.5742 -2.8125 -8.5742 -8.0078 c0 -5.2539 4.2969 -8.2227 9.9609 -8.2227 c4.9609 0 9.9609 2.0117 11.094 7.4219 l-5.6641 1.4063 c-0.52734 -2.8125 -2.4219 -4.043 -5.0781 -4.043 c-2.3633 0 -4.375 0.97656 -4.375 3.3008 c0 2.168 2.7734 2.8906 5.9766 3.8477 c4.2578 1.2891 9.2969 2.9297 9.2969 8.5547 c0 5.9961 -5.0195 8.5156 -10.547 8.5156 z"/></g><g id="SvgjsG1679" featureKey="sloganFeature-0" transform="matrix(0.8704439765854223,0,0,0.8704439765854223,119.8556811364543,53.044344674242474)" fill="#000"><path d="M12.412 5.888999999999999 l-4.6387 7.3535 l0 6.7578 l-2.9395 0 l0 -6.6895 l-4.668 -7.4219 l3.2422 0 l2.8809 4.8047 l2.8906 -4.8047 l3.2324 0 z M20.644559375 20.19531 c-4.1504 0 -7.2168 -2.832 -7.2168 -7.2559 c0 -4.4336 3.0664 -7.2461 7.2168 -7.2461 c4.1406 0 7.207 2.8125 7.207 7.2461 c0 4.4238 -3.0664 7.2559 -7.207 7.2559 z M20.644559375 17.5098 c2.4316 0 4.2969 -1.709 4.2969 -4.5703 c0 -2.8516 -1.8652 -4.5508 -4.2969 -4.5508 s-4.2969 1.6992 -4.2969 4.5508 c0 2.8613 1.8652 4.5703 4.2969 4.5703 z M35.771503125 20.19531 c-3.0957 0 -5.5176 -1.582 -5.5176 -5.1367 l0 -9.1699 l2.9297 0 l0 8.7695 c0 2.1484 1.1426 2.9492 2.5879 2.9492 c1.4551 0 2.6074 -0.81055 2.6074 -2.9492 l0 -8.7695 l2.9297 0 l0 9.1699 c0 3.5547 -2.4316 5.1367 -5.5371 5.1367 z M52.119096875 20 l-3.6719 -6.2109 l-0.84961 0 l0 6.2109 l-2.9297 0 l0 -14.111 l5.1172 0 c3.1934 0 4.541 1.8848 4.541 4.2188 c0 1.8945 -1.0742 3.125 -2.9883 3.5352 l4.248 6.3574 l-3.4668 0 z M47.597696875 8.32 l0 3.3691 l1.7285 0 c1.5625 0 2.1973 -0.66406 2.1973 -1.6797 c0 -1.0059 -0.63477 -1.6895 -2.1973 -1.6895 l-1.7285 0 z M71.826515625 5.888999999999999 l2.9297 0 l0 14.111 l-2.9297 0 l0 -5.8008 l-5.9668 0 l0 5.8008 l-2.9297 0 l0 -14.111 l2.9297 0 l0 5.7617 l5.9668 0 l0 -5.7617 z M85.85933125 20 l-3.6719 -6.2109 l-0.84961 0 l0 6.2109 l-2.9297 0 l0 -14.111 l5.1172 0 c3.1934 0 4.541 1.8848 4.541 4.2188 c0 1.8945 -1.0742 3.125 -2.9883 3.5352 l4.248 6.3574 l-3.4668 0 z M81.33793125 8.32 l0 3.3691 l1.7285 0 c1.5625 0 2.1973 -0.66406 2.1973 -1.6797 c0 -1.0059 -0.63477 -1.6895 -2.1973 -1.6895 l-1.7285 0 z M93.0761375 23.5938 l-2.0117 0 l1.2207 -6.3867 l2.8906 0 z M109.48245 20.19531 c-4.1504 0 -7.2168 -2.832 -7.2168 -7.2559 c0 -4.4336 3.0664 -7.2461 7.2168 -7.2461 c4.1406 0 7.207 2.8125 7.207 7.2461 c0 4.4238 -3.0664 7.2559 -7.207 7.2559 z M109.48245 17.5098 c2.4316 0 4.2969 -1.709 4.2969 -4.5703 c0 -2.8516 -1.8652 -4.5508 -4.2969 -4.5508 s-4.2969 1.6992 -4.2969 4.5508 c0 2.8613 1.8652 4.5703 4.2969 4.5703 z M124.60939375 20.19531 c-3.0957 0 -5.5176 -1.582 -5.5176 -5.1367 l0 -9.1699 l2.9297 0 l0 8.7695 c0 2.1484 1.1426 2.9492 2.5879 2.9492 c1.4551 0 2.6074 -0.81055 2.6074 -2.9492 l0 -8.7695 l2.9297 0 l0 9.1699 c0 3.5547 -2.4316 5.1367 -5.5371 5.1367 z M140.9569875 20 l-3.6719 -6.2109 l-0.84961 0 l0 6.2109 l-2.9297 0 l0 -14.111 l5.1172 0 c3.1934 0 4.541 1.8848 4.541 4.2188 c0 1.8945 -1.0742 3.125 -2.9883 3.5352 l4.248 6.3574 l-3.4668 0 z M136.4355875 8.32 l0 3.3691 l1.7285 0 c1.5625 0 2.1973 -0.66406 2.1973 -1.6797 c0 -1.0059 -0.63477 -1.6895 -2.1973 -1.6895 l-1.7285 0 z M159.95140625 8.467 l-5.2344 0 l0 3.2031 l4.6387 0 l0 2.5488 l-4.6387 0 l0 3.1934 l5.2344 0 l0 2.5879 l-8.1836 0 l0 -14.111 l8.1836 0 l0 2.5781 z M161.425778125 20 l5.498 -7.3633 l-5.3418 -6.748 l3.5645 0 l3.5156 4.6289 l3.5156 -4.6289 l3.5645 0 l-5.3418 6.748 l5.498 7.3633 l-3.7305 0 l-3.5059 -4.9902 l-3.5059 4.9902 l-3.7305 0 z M183.876940625 5.888999999999999 c2.7637 0 4.4824 2.0508 4.4824 4.5605 c0 2.5684 -1.7188 4.4922 -4.4824 4.4922 l-2.9395 0 l0 5.0586 l-2.9297 0 l0 -14.111 l5.8691 0 z M183.388640625 12.4902 c1.4648 0 2.1484 -0.81055 2.1484 -2.0801 c0 -1.2207 -0.68359 -2.0703 -2.1484 -2.0703 l-2.4512 0 l0 4.1504 l2.4512 0 z M199.004140625 8.467 l-5.2344 0 l0 3.2031 l4.6387 0 l0 2.5488 l-4.6387 0 l0 3.1934 l5.2344 0 l0 2.5879 l-8.1836 0 l0 -14.111 l8.1836 0 l0 2.5781 z M209.4726125 20 l-3.6719 -6.2109 l-0.84961 0 l0 6.2109 l-2.9297 0 l0 -14.111 l5.1172 0 c3.1934 0 4.541 1.8848 4.541 4.2188 c0 1.8945 -1.0742 3.125 -2.9883 3.5352 l4.248 6.3574 l-3.4668 0 z M204.9512125 8.32 l0 3.3691 l1.7285 0 c1.5625 0 2.1973 -0.66406 2.1973 -1.6797 c0 -1.0059 -0.63477 -1.6895 -2.1973 -1.6895 l-1.7285 0 z M223.27171875 5.888999999999999 l0 2.5781 l-3.3496 0 l0 11.533 l-2.9004 0 l0 -11.533 l-3.3691 0 l0 -2.5781 l9.6191 0 z M225.488309375 20 l0 -14.111 l2.9297 0 l0 14.111 l-2.9297 0 z M236.748075 20.19531 c-3.0273 0 -5.3906 -1.4551 -5.8203 -4.1016 l3.0273 -0.69336 c0.19531 1.582 1.3574 2.4023 2.9102 2.4023 c1.1914 0 2.1387 -0.52734 2.1289 -1.7188 c-0.0097656 -1.3281 -1.5723 -1.748 -3.291 -2.2754 c-2.0703 -0.64453 -4.2871 -1.4063 -4.2871 -4.0039 c0 -2.627 2.1484 -4.1113 4.9805 -4.1113 c2.4805 0 4.9805 1.0059 5.5469 3.7109 l-2.832 0.70313 c-0.26367 -1.4063 -1.2109 -2.0215 -2.5391 -2.0215 c-1.1816 0 -2.1875 0.48828 -2.1875 1.6504 c0 1.084 1.3867 1.4453 2.9883 1.9238 c2.1289 0.64453 4.6484 1.4648 4.6484 4.2773 c0 2.998 -2.5098 4.2578 -5.2734 4.2578 z M252.910390625 8.467 l-5.2344 0 l0 3.2031 l4.6387 0 l0 2.5488 l-4.6387 0 l0 3.1934 l5.2344 0 l0 2.5879 l-8.1836 0 l0 -14.111 l8.1836 0 l0 2.5781 z"/></g>
			</g>
		</svg>
	